<?xml version="1.0" standalone="no"?>
<!DOCTYPE svg PUBLIC "-//W3C//DTD SVG 20010904//EN"
 "http://www.w3.org/TR/2001/REC-SVG-20010904/DTD/svg10.dtd">
<svg version="1.0" xmlns="http://www.w3.org/2000/svg"
 width="310.000000pt" height="310.000000pt" viewBox="0 0 310.000000 310.000000"
 preserveAspectRatio="xMidYMid meet">
<metadata>
Created by potrace 1.11, written by Peter Selinger 2001-2013
</metadata>
<g transform="translate(0.000000,310.000000) scale(0.100000,-0.100000)"
fill="#000000" stroke="none">
<path d="M1400 2516 c-105 -12 -263 -42 -350 -68 -62 -18 -176 -76 -211 -106
-19 -16 -54 -42 -79 -57 -66 -41 -148 -122 -191 -188 -35 -54 -38 -56 -54 -40
-14 13 -34 16 -97 15 -95 -1 -112 -6 -160 -44 -75 -59 -115 -169 -102 -288 11
-111 34 -149 132 -222 39 -29 52 -44 47 -56 -3 -9 -10 -75 -15 -147 -5 -71
-12 -141 -15 -155 -15 -67 -25 -199 -25 -332 0 -140 1 -148 19 -148 11 0 22 3
24 8 3 4 8 95 11 202 4 107 9 202 11 210 3 8 7 53 9 100 18 295 45 426 131
624 56 127 77 166 91 166 19 0 29 21 14 30 -26 16 53 109 180 212 79 64 255
145 356 162 16 3 67 15 114 27 47 11 112 23 145 25 33 2 80 7 105 10 266 37
568 -71 789 -282 88 -84 103 -104 186 -250 101 -178 113 -202 161 -327 85
-222 120 -435 109 -680 -5 -137 -4 -158 9 -163 9 -3 16 -12 16 -20 0 -8 6 -14
14 -14 10 0 15 34 21 157 3 87 4 183 1 213 -3 30 -8 94 -11 141 -2 48 -13 114
-24 147 l-19 61 33 20 c39 23 112 111 133 161 20 48 11 154 -17 213 -25 52
-130 148 -169 155 -15 2 -74 6 -131 7 -99 2 -106 4 -120 26 -35 57 -115 158
-122 154 -3 -3 -13 3 -20 12 -10 11 -10 14 -2 9 9 -5 11 -2 7 9 -4 9 -13 14
-21 11 -8 -3 -12 -2 -9 3 7 10 -63 75 -71 67 -3 -3 8 -17 23 -31 l29 -26 -32
22 c-18 13 -33 27 -33 31 0 17 -56 59 -154 115 -115 65 -223 109 -292 118 -94
13 -260 13 -374 1z m-932 -515 c23 -6 42 -13 42 -14 0 -1 -16 -33 -35 -72 -19
-38 -35 -76 -35 -82 0 -7 -10 -13 -23 -13 -12 0 -33 -7 -46 -16 -19 -14 -22
-23 -18 -52 4 -19 13 -42 22 -52 14 -15 14 -22 1 -61 -8 -24 -18 -61 -22 -82
l-7 -38 -33 33 c-38 37 -69 97 -90 173 -29 105 -10 173 68 240 66 57 87 61
176 36z m2258 -77 c27 -13 60 -34 73 -47 23 -25 70 -147 71 -182 0 -32 -46
-121 -71 -139 -49 -34 -101 -67 -103 -64 -1 2 -12 34 -25 71 l-24 69 22 39
c17 30 20 43 11 59 -11 21 -51 36 -74 27 -10 -4 -16 5 -21 31 -8 41 -41 112
-53 112 -4 0 -9 11 -10 24 -2 23 2 25 46 28 67 5 100 -1 158 -28z m-2323 -170
c-4 -10 -9 -12 -15 -6 -12 12 -1 35 12 27 5 -3 6 -13 3 -21z"/>
<path d="M1027 2069 c-55 -13 -89 -33 -140 -83 -62 -60 -107 -161 -107 -241 0
-50 27 -139 58 -191 16 -27 32 -60 35 -74 11 -40 104 -114 170 -135 67 -21
189 -15 241 12 90 46 122 89 162 218 48 154 21 306 -70 394 -60 58 -203 113
-285 110 -14 -1 -43 -5 -64 -10z m224 -72 c79 -37 123 -90 150 -179 47 -150
24 -260 -72 -350 -64 -60 -129 -83 -213 -75 -33 3 -62 10 -64 16 -2 5 -10 7
-19 4 -11 -4 -14 -2 -9 5 5 8 2 10 -8 6 -11 -4 -16 0 -16 12 0 9 -3 14 -7 10
-4 -3 -28 16 -54 43 -33 35 -53 67 -68 113 -60 180 -23 303 116 385 85 50 174
53 264 10z"/>
<path d="M1253 1738 c-29 -14 -48 -70 -34 -96 14 -26 37 -34 78 -26 47 9 69
54 47 96 -8 16 -21 28 -28 28 -8 0 -20 2 -28 4 -7 3 -23 0 -35 -6z"/>
<path d="M1780 2062 c-72 -27 -168 -130 -204 -219 -41 -102 -41 -168 1 -254
47 -96 140 -193 206 -215 150 -51 360 17 419 136 48 96 20 357 -48 446 -48 64
-197 126 -298 123 -17 0 -51 -8 -76 -17z m221 -58 c55 -28 121 -97 146 -152
43 -99 51 -235 16 -309 -18 -38 -80 -96 -94 -88 -5 4 -9 2 -9 -4 0 -5 -15 -12
-32 -16 -18 -4 -44 -14 -57 -22 -13 -8 -20 -10 -17 -4 9 14 -6 15 -20 1 -6 -6
-30 -6 -69 0 -97 16 -178 84 -252 214 -15 26 -17 108 -2 158 5 21 33 73 62
115 46 69 59 81 116 109 58 28 68 30 122 22 33 -4 73 -15 90 -24z"/>
<path d="M2010 1731 c-38 -71 25 -139 88 -95 26 18 30 74 6 98 -22 23 -81 21
-94 -3z"/>
<path d="M1502 1283 c-45 -11 -73 -24 -99 -49 -32 -31 -35 -38 -30 -74 3 -22
1 -38 -4 -35 -29 19 -151 -85 -165 -140 -20 -79 40 -143 136 -147 l38 -1 7
-86 c3 -47 8 -97 11 -109 6 -31 48 -72 73 -72 34 0 73 19 78 39 4 17 6 17 28
-5 35 -35 88 -33 127 6 30 30 30 31 26 129 l-3 98 44 12 c24 6 56 20 71 31 55
39 77 133 44 189 -18 31 -116 81 -158 81 -23 0 -25 2 -16 19 15 28 12 77 -4
91 -15 12 -112 41 -131 39 -5 -1 -38 -8 -73 -16z m231 -169 c71 -22 97 -52 97
-113 0 -27 -6 -53 -12 -59 -23 -18 -113 -24 -159 -11 -71 21 -118 18 -187 -13
-81 -36 -130 -36 -171 -2 -44 37 -42 75 6 119 45 41 101 56 168 45 60 -10 136
4 167 30 28 24 28 24 91 4z m-41 -317 c2 -23 2 -64 0 -90 -4 -42 -9 -52 -35
-68 -54 -32 -75 10 -80 162 l-3 95 57 -28 c54 -27 57 -31 61 -71z m-162 -25
c0 -117 0 -119 -28 -146 -23 -21 -31 -24 -39 -14 -21 25 -31 88 -26 149 5 56
4 62 -11 56 -13 -5 -15 -3 -8 10 8 14 82 58 105 62 4 0 7 -52 7 -117z"/>
</g>
</svg>
